<mxfile host="Electron" agent="Mozilla/5.0 (Windows NT 10.0; Win64; x64) AppleWebKit/537.36 (KHTML, like Gecko) draw.io/26.2.15 Chrome/134.0.6998.205 Electron/35.2.1 Safari/537.36" version="26.2.15">
  <diagram name="Page-1" id="-lo_Nlaodse7x7YNbjrm">
    <mxGraphModel dx="2273" dy="1796" grid="1" gridSize="10" guides="1" tooltips="1" connect="1" arrows="1" fold="1" page="1" pageScale="1" pageWidth="850" pageHeight="1100" math="0" shadow="0">
      <root>
        <mxCell id="0" />
        <mxCell id="1" parent="0" />
        <mxCell id="QTb6hDSQ1GDn9kR1ieJ3-1" value="User" style="whiteSpace=wrap;html=1;align=center;" parent="1" vertex="1">
          <mxGeometry x="-310" y="-612" width="100" height="40" as="geometry" />
        </mxCell>
        <mxCell id="QTb6hDSQ1GDn9kR1ieJ3-2" value="Product" style="whiteSpace=wrap;html=1;align=center;" parent="1" vertex="1">
          <mxGeometry x="450" y="-607" width="100" height="40" as="geometry" />
        </mxCell>
        <mxCell id="QTb6hDSQ1GDn9kR1ieJ3-5" value="adds to cart" style="shape=rhombus;perimeter=rhombusPerimeter;whiteSpace=wrap;html=1;align=center;" parent="1" vertex="1">
          <mxGeometry x="80" y="-617" width="120" height="60" as="geometry" />
        </mxCell>
        <mxCell id="QTb6hDSQ1GDn9kR1ieJ3-8" value="0:n" style="text;html=1;align=center;verticalAlign=middle;resizable=0;points=[];autosize=1;strokeColor=none;fillColor=none;" parent="1" vertex="1">
          <mxGeometry x="-30" y="-472" width="40" height="30" as="geometry" />
        </mxCell>
        <mxCell id="QTb6hDSQ1GDn9kR1ieJ3-10" value="" style="endArrow=none;html=1;rounded=0;exitX=1;exitY=0.5;exitDx=0;exitDy=0;entryX=0;entryY=0.5;entryDx=0;entryDy=0;" parent="1" source="QTb6hDSQ1GDn9kR1ieJ3-1" target="QTb6hDSQ1GDn9kR1ieJ3-5" edge="1">
          <mxGeometry relative="1" as="geometry">
            <mxPoint x="360" y="-370" as="sourcePoint" />
            <mxPoint x="520" y="-340" as="targetPoint" />
          </mxGeometry>
        </mxCell>
        <mxCell id="QTb6hDSQ1GDn9kR1ieJ3-12" value="0:n" style="text;html=1;align=center;verticalAlign=middle;resizable=0;points=[];autosize=1;strokeColor=none;fillColor=none;" parent="1" vertex="1">
          <mxGeometry x="385" y="-617" width="40" height="30" as="geometry" />
        </mxCell>
        <mxCell id="QTb6hDSQ1GDn9kR1ieJ3-13" value="admin" style="whiteSpace=wrap;html=1;align=center;" parent="1" vertex="1">
          <mxGeometry x="450" y="-442" width="100" height="40" as="geometry" />
        </mxCell>
        <mxCell id="QTb6hDSQ1GDn9kR1ieJ3-14" value="adds" style="shape=rhombus;perimeter=rhombusPerimeter;whiteSpace=wrap;html=1;align=center;" parent="1" vertex="1">
          <mxGeometry x="550" y="-522" width="120" height="60" as="geometry" />
        </mxCell>
        <mxCell id="QTb6hDSQ1GDn9kR1ieJ3-16" value="" style="endArrow=none;html=1;rounded=0;exitX=0;exitY=1;exitDx=0;exitDy=0;entryX=0.5;entryY=0;entryDx=0;entryDy=0;" parent="1" source="QTb6hDSQ1GDn9kR1ieJ3-14" target="QTb6hDSQ1GDn9kR1ieJ3-13" edge="1">
          <mxGeometry relative="1" as="geometry">
            <mxPoint x="360" y="-560" as="sourcePoint" />
            <mxPoint x="680" y="-440" as="targetPoint" />
          </mxGeometry>
        </mxCell>
        <mxCell id="QTb6hDSQ1GDn9kR1ieJ3-17" value="0:n" style="text;html=1;align=center;verticalAlign=middle;resizable=0;points=[];autosize=1;strokeColor=none;fillColor=none;" parent="1" vertex="1">
          <mxGeometry x="490" y="-477" width="40" height="30" as="geometry" />
        </mxCell>
        <mxCell id="QTb6hDSQ1GDn9kR1ieJ3-18" value="" style="endArrow=none;html=1;rounded=0;entryX=0.5;entryY=1;entryDx=0;entryDy=0;exitX=0;exitY=0;exitDx=0;exitDy=0;" parent="1" source="QTb6hDSQ1GDn9kR1ieJ3-14" target="QTb6hDSQ1GDn9kR1ieJ3-2" edge="1">
          <mxGeometry relative="1" as="geometry">
            <mxPoint x="540" y="-490" as="sourcePoint" />
            <mxPoint x="340" y="-570" as="targetPoint" />
          </mxGeometry>
        </mxCell>
        <mxCell id="QTb6hDSQ1GDn9kR1ieJ3-19" value="1:1" style="text;html=1;align=center;verticalAlign=middle;resizable=0;points=[];autosize=1;strokeColor=none;fillColor=none;" parent="1" vertex="1">
          <mxGeometry x="500" y="-557" width="40" height="30" as="geometry" />
        </mxCell>
        <mxCell id="QTb6hDSQ1GDn9kR1ieJ3-23" value="" style="endArrow=none;html=1;rounded=0;exitX=1;exitY=0.5;exitDx=0;exitDy=0;entryX=0;entryY=0.5;entryDx=0;entryDy=0;" parent="1" source="QTb6hDSQ1GDn9kR1ieJ3-5" target="QTb6hDSQ1GDn9kR1ieJ3-2" edge="1">
          <mxGeometry relative="1" as="geometry">
            <mxPoint x="190" y="-570" as="sourcePoint" />
            <mxPoint x="250" y="-442" as="targetPoint" />
          </mxGeometry>
        </mxCell>
        <mxCell id="QTb6hDSQ1GDn9kR1ieJ3-27" value="ID" style="html=1;verticalAlign=bottom;startArrow=oval;startFill=1;endArrow=block;startSize=8;curved=0;rounded=0;entryX=0;entryY=1;entryDx=0;entryDy=0;" parent="1" target="QTb6hDSQ1GDn9kR1ieJ3-1" edge="1">
          <mxGeometry x="-0.6" width="60" relative="1" as="geometry">
            <mxPoint x="-410" y="-540" as="sourcePoint" />
            <mxPoint x="210" y="-500" as="targetPoint" />
            <mxPoint as="offset" />
          </mxGeometry>
        </mxCell>
        <mxCell id="QTb6hDSQ1GDn9kR1ieJ3-28" value="Username" style="html=1;verticalAlign=bottom;startArrow=oval;startFill=0;endArrow=block;startSize=8;curved=0;rounded=0;entryX=0.164;entryY=0.985;entryDx=0;entryDy=0;entryPerimeter=0;" parent="1" edge="1" target="QTb6hDSQ1GDn9kR1ieJ3-1">
          <mxGeometry x="-0.6" width="60" relative="1" as="geometry">
            <mxPoint x="-360" y="-520" as="sourcePoint" />
            <mxPoint x="160" y="-580" as="targetPoint" />
            <mxPoint as="offset" />
          </mxGeometry>
        </mxCell>
        <mxCell id="QTb6hDSQ1GDn9kR1ieJ3-29" value="Password" style="html=1;verticalAlign=bottom;startArrow=oval;startFill=0;endArrow=block;startSize=8;curved=0;rounded=0;entryX=0.5;entryY=1;entryDx=0;entryDy=0;" parent="1" edge="1" target="QTb6hDSQ1GDn9kR1ieJ3-1">
          <mxGeometry x="-0.6" width="60" relative="1" as="geometry">
            <mxPoint x="-300" y="-500" as="sourcePoint" />
            <mxPoint x="210" y="-580" as="targetPoint" />
            <mxPoint as="offset" />
          </mxGeometry>
        </mxCell>
        <mxCell id="QTb6hDSQ1GDn9kR1ieJ3-30" value="Email" style="html=1;verticalAlign=bottom;startArrow=oval;startFill=0;endArrow=block;startSize=8;curved=0;rounded=0;entryX=0;entryY=0.5;entryDx=0;entryDy=0;" parent="1" target="QTb6hDSQ1GDn9kR1ieJ3-1" edge="1">
          <mxGeometry x="-0.6" width="60" relative="1" as="geometry">
            <mxPoint x="-430" y="-580" as="sourcePoint" />
            <mxPoint x="180" y="-560" as="targetPoint" />
            <mxPoint as="offset" />
          </mxGeometry>
        </mxCell>
        <mxCell id="QTb6hDSQ1GDn9kR1ieJ3-31" value="Shipping_address" style="html=1;verticalAlign=bottom;startArrow=oval;startFill=0;endArrow=block;startSize=8;curved=0;rounded=0;entryX=0;entryY=0;entryDx=0;entryDy=0;" parent="1" target="QTb6hDSQ1GDn9kR1ieJ3-1" edge="1">
          <mxGeometry x="-0.7976" y="-17" width="60" relative="1" as="geometry">
            <mxPoint x="-420" y="-630" as="sourcePoint" />
            <mxPoint x="190" y="-550" as="targetPoint" />
            <mxPoint as="offset" />
          </mxGeometry>
        </mxCell>
        <mxCell id="QTb6hDSQ1GDn9kR1ieJ3-33" value="Registration_date" style="html=1;verticalAlign=bottom;startArrow=oval;startFill=0;endArrow=block;startSize=8;curved=0;rounded=0;entryX=0.5;entryY=0;entryDx=0;entryDy=0;" parent="1" target="QTb6hDSQ1GDn9kR1ieJ3-1" edge="1">
          <mxGeometry x="-0.6" width="60" relative="1" as="geometry">
            <mxPoint x="-410" y="-660" as="sourcePoint" />
            <mxPoint x="200" y="-540" as="targetPoint" />
            <mxPoint as="offset" />
          </mxGeometry>
        </mxCell>
        <mxCell id="QTb6hDSQ1GDn9kR1ieJ3-34" value="Quantity" style="html=1;verticalAlign=bottom;startArrow=oval;startFill=0;endArrow=block;startSize=8;curved=0;rounded=0;entryX=0;entryY=1;entryDx=0;entryDy=0;" parent="1" target="QTb6hDSQ1GDn9kR1ieJ3-5" edge="1">
          <mxGeometry x="-0.6" width="60" relative="1" as="geometry">
            <mxPoint x="50" y="-540" as="sourcePoint" />
            <mxPoint x="210" y="-530" as="targetPoint" />
            <mxPoint as="offset" />
          </mxGeometry>
        </mxCell>
        <mxCell id="QTb6hDSQ1GDn9kR1ieJ3-35" value="Name" style="html=1;verticalAlign=bottom;startArrow=oval;startFill=0;endArrow=block;startSize=8;curved=0;rounded=0;entryX=0.107;entryY=-0.008;entryDx=0;entryDy=0;entryPerimeter=0;" parent="1" target="QTb6hDSQ1GDn9kR1ieJ3-2" edge="1">
          <mxGeometry x="-1" y="-7" width="60" relative="1" as="geometry">
            <mxPoint x="480" y="-650" as="sourcePoint" />
            <mxPoint x="560" y="-690" as="targetPoint" />
            <mxPoint x="6" y="-7" as="offset" />
          </mxGeometry>
        </mxCell>
        <mxCell id="QTb6hDSQ1GDn9kR1ieJ3-36" value="Brand" style="html=1;verticalAlign=bottom;startArrow=oval;startFill=0;endArrow=block;startSize=8;curved=0;rounded=0;entryX=0.574;entryY=0.039;entryDx=0;entryDy=0;entryPerimeter=0;" parent="1" edge="1" target="QTb6hDSQ1GDn9kR1ieJ3-2">
          <mxGeometry x="-1" y="-5" width="60" relative="1" as="geometry">
            <mxPoint x="520" y="-650" as="sourcePoint" />
            <mxPoint x="569.31" y="-619" as="targetPoint" />
            <mxPoint x="5" y="-5" as="offset" />
          </mxGeometry>
        </mxCell>
        <mxCell id="QTb6hDSQ1GDn9kR1ieJ3-38" value="Ram" style="html=1;verticalAlign=bottom;startArrow=oval;startFill=0;endArrow=block;startSize=8;curved=0;rounded=0;entryX=0.901;entryY=-0.034;entryDx=0;entryDy=0;entryPerimeter=0;" parent="1" edge="1" target="QTb6hDSQ1GDn9kR1ieJ3-2">
          <mxGeometry x="-1" y="-5" width="60" relative="1" as="geometry">
            <mxPoint x="550" y="-650" as="sourcePoint" />
            <mxPoint x="600" y="-617" as="targetPoint" />
            <mxPoint x="5" y="-5" as="offset" />
          </mxGeometry>
        </mxCell>
        <mxCell id="QTb6hDSQ1GDn9kR1ieJ3-39" value="Rom" style="html=1;verticalAlign=bottom;startArrow=oval;startFill=0;endArrow=block;startSize=8;curved=0;rounded=0;entryX=1;entryY=0.25;entryDx=0;entryDy=0;" parent="1" edge="1" target="QTb6hDSQ1GDn9kR1ieJ3-2">
          <mxGeometry x="-1" y="-5" width="60" relative="1" as="geometry">
            <mxPoint x="590" y="-650" as="sourcePoint" />
            <mxPoint x="620" y="-617" as="targetPoint" />
            <mxPoint x="5" y="-5" as="offset" />
          </mxGeometry>
        </mxCell>
        <mxCell id="QTb6hDSQ1GDn9kR1ieJ3-40" value="Camera" style="html=1;verticalAlign=bottom;startArrow=oval;startFill=0;endArrow=block;startSize=8;curved=0;rounded=0;entryX=1;entryY=0;entryDx=0;entryDy=0;" parent="1" target="QTb6hDSQ1GDn9kR1ieJ3-2" edge="1">
          <mxGeometry x="-1" y="-5" width="60" relative="1" as="geometry">
            <mxPoint x="610" y="-640" as="sourcePoint" />
            <mxPoint x="599.31" y="-589" as="targetPoint" />
            <mxPoint x="5" y="-5" as="offset" />
          </mxGeometry>
        </mxCell>
        <mxCell id="QTb6hDSQ1GDn9kR1ieJ3-41" value="Battery" style="html=1;verticalAlign=bottom;startArrow=oval;startFill=0;endArrow=block;startSize=8;curved=0;rounded=0;entryX=1;entryY=0.5;entryDx=0;entryDy=0;" parent="1" edge="1" target="QTb6hDSQ1GDn9kR1ieJ3-2">
          <mxGeometry x="-1" y="20" width="60" relative="1" as="geometry">
            <mxPoint x="640" y="-630" as="sourcePoint" />
            <mxPoint x="620" y="-602.69" as="targetPoint" />
            <mxPoint x="11" y="-18" as="offset" />
          </mxGeometry>
        </mxCell>
        <mxCell id="QTb6hDSQ1GDn9kR1ieJ3-42" value="Price" style="html=1;verticalAlign=bottom;startArrow=oval;startFill=0;endArrow=block;startSize=8;curved=0;rounded=0;entryX=1;entryY=0.75;entryDx=0;entryDy=0;" parent="1" edge="1" target="QTb6hDSQ1GDn9kR1ieJ3-2">
          <mxGeometry x="-1" y="-30" width="60" relative="1" as="geometry">
            <mxPoint x="660" y="-610" as="sourcePoint" />
            <mxPoint x="620" y="-580.69" as="targetPoint" />
            <mxPoint x="30" y="30" as="offset" />
          </mxGeometry>
        </mxCell>
        <mxCell id="QTb6hDSQ1GDn9kR1ieJ3-43" value="Quantity" style="html=1;verticalAlign=bottom;startArrow=oval;startFill=0;endArrow=block;startSize=8;curved=0;rounded=0;entryX=1;entryY=0.75;entryDx=0;entryDy=0;" parent="1" edge="1" target="QTb6hDSQ1GDn9kR1ieJ3-2">
          <mxGeometry x="-1" y="-10" width="60" relative="1" as="geometry">
            <mxPoint x="670" y="-580" as="sourcePoint" />
            <mxPoint x="620" y="-580" as="targetPoint" />
            <mxPoint x="5" y="9" as="offset" />
          </mxGeometry>
        </mxCell>
        <mxCell id="QTb6hDSQ1GDn9kR1ieJ3-44" value="ID" style="html=1;verticalAlign=bottom;startArrow=oval;startFill=1;endArrow=block;startSize=8;curved=0;rounded=0;entryX=0;entryY=1;entryDx=0;entryDy=0;" parent="1" target="QTb6hDSQ1GDn9kR1ieJ3-2" edge="1">
          <mxGeometry x="-0.6" width="60" relative="1" as="geometry">
            <mxPoint x="410" y="-550" as="sourcePoint" />
            <mxPoint x="440" y="-530" as="targetPoint" />
            <mxPoint as="offset" />
          </mxGeometry>
        </mxCell>
        <mxCell id="QTb6hDSQ1GDn9kR1ieJ3-45" value="ID" style="html=1;verticalAlign=bottom;startArrow=oval;startFill=1;endArrow=block;startSize=8;curved=0;rounded=0;entryX=0;entryY=0.75;entryDx=0;entryDy=0;" parent="1" target="QTb6hDSQ1GDn9kR1ieJ3-13" edge="1">
          <mxGeometry x="-0.6" width="60" relative="1" as="geometry">
            <mxPoint x="410" y="-390" as="sourcePoint" />
            <mxPoint x="260" y="-540" as="targetPoint" />
            <mxPoint as="offset" />
          </mxGeometry>
        </mxCell>
        <mxCell id="QTb6hDSQ1GDn9kR1ieJ3-46" value="Name" style="html=1;verticalAlign=bottom;startArrow=oval;startFill=0;endArrow=block;startSize=8;curved=0;rounded=0;entryX=0.968;entryY=0.377;entryDx=0;entryDy=0;entryPerimeter=0;" parent="1" target="QTb6hDSQ1GDn9kR1ieJ3-13" edge="1">
          <mxGeometry x="-1" y="-7" width="60" relative="1" as="geometry">
            <mxPoint x="610" y="-430" as="sourcePoint" />
            <mxPoint x="780" y="-397" as="targetPoint" />
            <mxPoint x="6" y="-7" as="offset" />
          </mxGeometry>
        </mxCell>
        <mxCell id="QTb6hDSQ1GDn9kR1ieJ3-47" value="Password" style="html=1;verticalAlign=bottom;startArrow=oval;startFill=0;endArrow=block;startSize=8;curved=0;rounded=0;entryX=0.25;entryY=1;entryDx=0;entryDy=0;" parent="1" target="QTb6hDSQ1GDn9kR1ieJ3-13" edge="1">
          <mxGeometry x="-0.6" width="60" relative="1" as="geometry">
            <mxPoint x="430" y="-360" as="sourcePoint" />
            <mxPoint x="330" y="-550" as="targetPoint" />
            <mxPoint as="offset" />
          </mxGeometry>
        </mxCell>
        <mxCell id="QTb6hDSQ1GDn9kR1ieJ3-48" value="Order" style="html=1;whiteSpace=wrap;" parent="1" vertex="1">
          <mxGeometry x="80" y="-830" width="90" height="30" as="geometry" />
        </mxCell>
        <mxCell id="QTb6hDSQ1GDn9kR1ieJ3-49" value="does" style="shape=rhombus;perimeter=rhombusPerimeter;whiteSpace=wrap;html=1;align=center;" parent="1" vertex="1">
          <mxGeometry x="-120" y="-752" width="120" height="60" as="geometry" />
        </mxCell>
        <mxCell id="QTb6hDSQ1GDn9kR1ieJ3-50" value="" style="endArrow=none;html=1;rounded=0;exitX=1;exitY=0;exitDx=0;exitDy=0;entryX=0.5;entryY=1;entryDx=0;entryDy=0;" parent="1" source="QTb6hDSQ1GDn9kR1ieJ3-1" target="QTb6hDSQ1GDn9kR1ieJ3-49" edge="1">
          <mxGeometry relative="1" as="geometry">
            <mxPoint x="240" y="-590" as="sourcePoint" />
            <mxPoint x="330" y="-577" as="targetPoint" />
            <Array as="points" />
          </mxGeometry>
        </mxCell>
        <mxCell id="QTb6hDSQ1GDn9kR1ieJ3-51" value="" style="endArrow=none;html=1;rounded=0;entryX=0;entryY=0;entryDx=0;entryDy=0;exitX=0.5;exitY=1;exitDx=0;exitDy=0;" parent="1" target="QTb6hDSQ1GDn9kR1ieJ3-2" edge="1" source="QTb6hDSQ1GDn9kR1ieJ3-52">
          <mxGeometry relative="1" as="geometry">
            <mxPoint x="470" y="-670" as="sourcePoint" />
            <mxPoint x="340" y="-567" as="targetPoint" />
          </mxGeometry>
        </mxCell>
        <mxCell id="QTb6hDSQ1GDn9kR1ieJ3-52" value="is in" style="shape=rhombus;perimeter=rhombusPerimeter;whiteSpace=wrap;html=1;align=center;" parent="1" vertex="1">
          <mxGeometry x="250" y="-752" width="120" height="60" as="geometry" />
        </mxCell>
        <mxCell id="QTb6hDSQ1GDn9kR1ieJ3-53" value="" style="endArrow=none;html=1;rounded=0;entryX=0.5;entryY=0;entryDx=0;entryDy=0;exitX=1;exitY=1;exitDx=0;exitDy=0;" parent="1" source="QTb6hDSQ1GDn9kR1ieJ3-48" target="QTb6hDSQ1GDn9kR1ieJ3-52" edge="1">
          <mxGeometry relative="1" as="geometry">
            <mxPoint x="480" y="-660" as="sourcePoint" />
            <mxPoint x="530" y="-610" as="targetPoint" />
          </mxGeometry>
        </mxCell>
        <mxCell id="QTb6hDSQ1GDn9kR1ieJ3-54" value="" style="endArrow=none;html=1;rounded=0;entryX=0;entryY=1;entryDx=0;entryDy=0;exitX=0.5;exitY=0;exitDx=0;exitDy=0;" parent="1" source="QTb6hDSQ1GDn9kR1ieJ3-49" target="QTb6hDSQ1GDn9kR1ieJ3-48" edge="1">
          <mxGeometry relative="1" as="geometry">
            <mxPoint x="490" y="-650" as="sourcePoint" />
            <mxPoint x="540" y="-600" as="targetPoint" />
          </mxGeometry>
        </mxCell>
        <mxCell id="QTb6hDSQ1GDn9kR1ieJ3-55" value="0:n" style="text;html=1;align=center;verticalAlign=middle;resizable=0;points=[];autosize=1;strokeColor=none;fillColor=none;" parent="1" vertex="1">
          <mxGeometry x="-200" y="-660" width="40" height="30" as="geometry" />
        </mxCell>
        <mxCell id="QTb6hDSQ1GDn9kR1ieJ3-56" value="1:1" style="text;html=1;align=center;verticalAlign=middle;resizable=0;points=[];autosize=1;strokeColor=none;fillColor=none;" parent="1" vertex="1">
          <mxGeometry y="-782" width="40" height="30" as="geometry" />
        </mxCell>
        <mxCell id="QTb6hDSQ1GDn9kR1ieJ3-57" value="0:n" style="text;html=1;align=center;verticalAlign=middle;resizable=0;points=[];autosize=1;strokeColor=none;fillColor=none;" parent="1" vertex="1">
          <mxGeometry x="430" y="-680" width="40" height="30" as="geometry" />
        </mxCell>
        <mxCell id="QTb6hDSQ1GDn9kR1ieJ3-58" value="1:1" style="text;html=1;align=center;verticalAlign=middle;resizable=0;points=[];autosize=1;strokeColor=none;fillColor=none;" parent="1" vertex="1">
          <mxGeometry x="200" y="-782" width="40" height="30" as="geometry" />
        </mxCell>
        <mxCell id="QTb6hDSQ1GDn9kR1ieJ3-59" value="ID" style="html=1;verticalAlign=bottom;startArrow=oval;startFill=1;endArrow=block;startSize=8;curved=0;rounded=0;entryX=0;entryY=0;entryDx=0;entryDy=0;" parent="1" target="QTb6hDSQ1GDn9kR1ieJ3-48" edge="1">
          <mxGeometry x="-0.6" width="60" relative="1" as="geometry">
            <mxPoint y="-830" as="sourcePoint" />
            <mxPoint x="530" y="-570" as="targetPoint" />
            <mxPoint as="offset" />
          </mxGeometry>
        </mxCell>
        <mxCell id="QTb6hDSQ1GDn9kR1ieJ3-60" value="Order_date" style="html=1;verticalAlign=bottom;startArrow=oval;startFill=0;endArrow=block;startSize=8;curved=0;rounded=0;entryX=0.151;entryY=0.033;entryDx=0;entryDy=0;entryPerimeter=0;" parent="1" edge="1" target="QTb6hDSQ1GDn9kR1ieJ3-48">
          <mxGeometry x="-1" y="-10" width="60" relative="1" as="geometry">
            <mxPoint x="20" y="-860" as="sourcePoint" />
            <mxPoint x="340" y="-790" as="targetPoint" />
            <mxPoint as="offset" />
          </mxGeometry>
        </mxCell>
        <mxCell id="QTb6hDSQ1GDn9kR1ieJ3-61" value="Quantity" style="html=1;verticalAlign=bottom;startArrow=oval;startFill=0;endArrow=block;startSize=8;curved=0;rounded=0;entryX=0.5;entryY=0;entryDx=0;entryDy=0;" parent="1" target="QTb6hDSQ1GDn9kR1ieJ3-48" edge="1">
          <mxGeometry x="-1" width="60" relative="1" as="geometry">
            <mxPoint x="80" y="-890" as="sourcePoint" />
            <mxPoint x="360" y="-562" as="targetPoint" />
            <mxPoint as="offset" />
          </mxGeometry>
        </mxCell>
        <mxCell id="QTb6hDSQ1GDn9kR1ieJ3-62" value="total_price" style="html=1;verticalAlign=bottom;startArrow=oval;startFill=0;endArrow=block;startSize=8;curved=0;rounded=0;entryX=0.848;entryY=-0.063;entryDx=0;entryDy=0;entryPerimeter=0;" parent="1" target="QTb6hDSQ1GDn9kR1ieJ3-48" edge="1">
          <mxGeometry x="-0.6" width="60" relative="1" as="geometry">
            <mxPoint x="130" y="-900" as="sourcePoint" />
            <mxPoint x="510" y="-852" as="targetPoint" />
            <mxPoint as="offset" />
          </mxGeometry>
        </mxCell>
        <mxCell id="QTb6hDSQ1GDn9kR1ieJ3-63" value="Shipping_address" style="html=1;verticalAlign=bottom;startArrow=oval;startFill=0;endArrow=block;startSize=8;curved=0;rounded=0;entryX=1;entryY=0;entryDx=0;entryDy=0;" parent="1" target="QTb6hDSQ1GDn9kR1ieJ3-48" edge="1">
          <mxGeometry x="-0.6" width="60" relative="1" as="geometry">
            <mxPoint x="220" y="-880" as="sourcePoint" />
            <mxPoint x="590" y="-840" as="targetPoint" />
            <mxPoint as="offset" />
          </mxGeometry>
        </mxCell>
        <mxCell id="wbw4c1vMP3Ovu6SXbORG-1" value="searches" style="shape=rhombus;perimeter=rhombusPerimeter;whiteSpace=wrap;html=1;align=center;" parent="1" vertex="1">
          <mxGeometry x="80" y="-477" width="120" height="60" as="geometry" />
        </mxCell>
        <mxCell id="wbw4c1vMP3Ovu6SXbORG-2" value="" style="endArrow=none;html=1;rounded=0;exitX=1;exitY=1;exitDx=0;exitDy=0;entryX=0;entryY=0.5;entryDx=0;entryDy=0;" parent="1" source="QTb6hDSQ1GDn9kR1ieJ3-1" target="wbw4c1vMP3Ovu6SXbORG-1" edge="1">
          <mxGeometry relative="1" as="geometry">
            <mxPoint x="190" y="-492" as="sourcePoint" />
            <mxPoint x="280" y="-479" as="targetPoint" />
          </mxGeometry>
        </mxCell>
        <mxCell id="wbw4c1vMP3Ovu6SXbORG-3" value="" style="endArrow=none;html=1;rounded=0;exitX=0.25;exitY=1;exitDx=0;exitDy=0;entryX=1;entryY=0.5;entryDx=0;entryDy=0;" parent="1" source="QTb6hDSQ1GDn9kR1ieJ3-2" target="wbw4c1vMP3Ovu6SXbORG-1" edge="1">
          <mxGeometry relative="1" as="geometry">
            <mxPoint x="240" y="-570" as="sourcePoint" />
            <mxPoint x="330" y="-452" as="targetPoint" />
          </mxGeometry>
        </mxCell>
        <mxCell id="wbw4c1vMP3Ovu6SXbORG-4" value="0:n" style="text;html=1;align=center;verticalAlign=middle;resizable=0;points=[];autosize=1;strokeColor=none;fillColor=none;" parent="1" vertex="1">
          <mxGeometry x="290" y="-492" width="40" height="30" as="geometry" />
        </mxCell>
        <mxCell id="wbw4c1vMP3Ovu6SXbORG-5" value="0:n" style="text;html=1;align=center;verticalAlign=middle;resizable=0;points=[];autosize=1;strokeColor=none;fillColor=none;" parent="1" vertex="1">
          <mxGeometry x="-150" y="-620" width="40" height="30" as="geometry" />
        </mxCell>
        <mxCell id="wbw4c1vMP3Ovu6SXbORG-6" value="Search_date" style="html=1;verticalAlign=bottom;startArrow=oval;startFill=0;endArrow=block;startSize=8;curved=0;rounded=0;entryX=1;entryY=1;entryDx=0;entryDy=0;" parent="1" target="wbw4c1vMP3Ovu6SXbORG-1" edge="1">
          <mxGeometry x="-0.2206" y="-1" width="60" relative="1" as="geometry">
            <mxPoint x="190" y="-390" as="sourcePoint" />
            <mxPoint x="409" y="-330" as="targetPoint" />
            <mxPoint as="offset" />
          </mxGeometry>
        </mxCell>
        <mxCell id="kT6-AkcSublrStJx27Ml-1" value="data" style="html=1;verticalAlign=bottom;startArrow=oval;startFill=0;endArrow=block;startSize=8;curved=0;rounded=0;entryX=1;entryY=1;entryDx=0;entryDy=0;" parent="1" target="QTb6hDSQ1GDn9kR1ieJ3-5" edge="1">
          <mxGeometry x="-0.6" width="60" relative="1" as="geometry">
            <mxPoint x="190" y="-550" as="sourcePoint" />
            <mxPoint x="360" y="-562" as="targetPoint" />
            <mxPoint as="offset" />
          </mxGeometry>
        </mxCell>
        <mxCell id="MB2rfcVEX0KuMmHQwfHG-2" value="Deleted_at" style="html=1;verticalAlign=bottom;startArrow=oval;startFill=0;endArrow=block;startSize=8;curved=0;rounded=0;entryX=0.75;entryY=1;entryDx=0;entryDy=0;" edge="1" parent="1" target="QTb6hDSQ1GDn9kR1ieJ3-1">
          <mxGeometry x="-0.764" y="2" width="60" relative="1" as="geometry">
            <mxPoint x="-250" y="-490" as="sourcePoint" />
            <mxPoint x="-230" y="-562" as="targetPoint" />
            <mxPoint as="offset" />
          </mxGeometry>
        </mxCell>
        <mxCell id="MB2rfcVEX0KuMmHQwfHG-3" value="Avatar_path" style="html=1;verticalAlign=bottom;startArrow=oval;startFill=0;endArrow=block;startSize=8;curved=0;rounded=0;entryX=0.7;entryY=-0.008;entryDx=0;entryDy=0;entryPerimeter=0;" edge="1" parent="1" target="QTb6hDSQ1GDn9kR1ieJ3-1">
          <mxGeometry x="-0.6" width="60" relative="1" as="geometry">
            <mxPoint x="-300" y="-680" as="sourcePoint" />
            <mxPoint x="-200" y="-642" as="targetPoint" />
            <mxPoint as="offset" />
          </mxGeometry>
        </mxCell>
        <mxCell id="MB2rfcVEX0KuMmHQwfHG-5" value="Inserted_at" style="html=1;verticalAlign=bottom;startArrow=oval;startFill=0;endArrow=block;startSize=8;curved=0;rounded=0;entryX=0.352;entryY=0.993;entryDx=0;entryDy=0;entryPerimeter=0;" edge="1" parent="1" target="QTb6hDSQ1GDn9kR1ieJ3-2">
          <mxGeometry x="-1" y="-10" width="60" relative="1" as="geometry">
            <mxPoint x="460" y="-520" as="sourcePoint" />
            <mxPoint x="480" y="-519" as="targetPoint" />
            <mxPoint x="5" y="9" as="offset" />
          </mxGeometry>
        </mxCell>
        <mxCell id="MB2rfcVEX0KuMmHQwfHG-6" value="Deleted at" style="html=1;verticalAlign=bottom;startArrow=oval;startFill=0;endArrow=block;startSize=8;curved=0;rounded=0;entryX=0.75;entryY=1;entryDx=0;entryDy=0;" edge="1" parent="1" target="QTb6hDSQ1GDn9kR1ieJ3-13">
          <mxGeometry x="-0.6" width="60" relative="1" as="geometry">
            <mxPoint x="560" y="-350" as="sourcePoint" />
            <mxPoint x="540" y="-396" as="targetPoint" />
            <mxPoint as="offset" />
          </mxGeometry>
        </mxCell>
      </root>
    </mxGraphModel>
  </diagram>
</mxfile>
